<svg id="Layer_1" data-name="Layer 1" xmlns="http://www.w3.org/2000/svg" viewBox="0 0 100 100">
  <path
    d="M88.5,46.4,53.6,11.5a5.2,5.2,0,0,0-7.3,0h0L39,18.8,48.2,28A6.1,6.1,0,0,1,56,31.8a6.8,6.8,0,0,1,0,4l8.8,8.8a6.2,6.2,0,1,1-2.3,10.2,6,6,0,0,1-1.3-6.7l-8.3-8.3V61.6a6.1,6.1,0,0,1-5.4,11,6.1,6.1,0,0,1-2.8-8.2,5.9,5.9,0,0,1,3.2-3v-22a6,6,0,0,1-3.4-8h0l-9-9.1-24,24a5.2,5.2,0,0,0,0,7.3h0L46.4,88.5a5.2,5.2,0,0,0,7.3,0h0L88.5,53.7a5.2,5.2,0,0,0,0-7.3"
    style="fill:none;stroke:#4a4a4a;stroke-miterlimit:10" />
</svg>