<svg width="17" height="18" viewBox="0 0 17 18" fill="none" xmlns="http://www.w3.org/2000/svg">
  <path class='github-icon-outline'
    d="M6.76924 14.7172C3.07693 15.8586 3.07693 12.8149 1.60001 12.4344M11.9385 17V14.0552C11.9662 13.6923 11.9186 13.3276 11.7989 12.9852C11.6792 12.6427 11.4902 12.3305 11.2443 12.0691C13.5631 11.8028 16 10.8973 16 6.74261C15.9998 5.68022 15.6032 4.65856 14.8923 3.88911C15.2289 2.95963 15.2051 1.93225 14.8259 1.02039C14.8259 1.02039 13.9545 0.754061 11.9385 2.14657C10.2459 1.67389 8.46178 1.67389 6.76924 2.14657C4.75324 0.754061 3.88185 1.02039 3.88185 1.02039C3.50256 1.93225 3.47876 2.95963 3.81539 3.88911C3.09918 4.66427 2.70218 5.69516 2.7077 6.76544C2.7077 10.8897 5.14462 11.7952 7.46339 12.092C7.22043 12.3507 7.03306 12.6592 6.91346 12.9974C6.79387 13.3357 6.74473 13.6961 6.76924 14.0552V17"
    stroke="#4a4a4a" stroke-width="1.5" stroke-linecap="round" stroke-linejoin="round" />
</svg>