<svg width="27" height="26" viewBox="0 0 27 26" fill="none" xmlns="http://www.w3.org/2000/svg">
  <path
    d="M9.43432 25.0001C9.44087 24.05 9.44087 23.1 9.44743 22.15C9.44743 21.3572 9.45398 20.5709 9.45398 19.7781C9.45398 18.376 9.46053 16.9673 9.46053 15.5652C9.46053 14.5496 9.46708 13.5406 9.46708 12.5251C9.46708 11.4964 9.46053 10.4677 9.45398 9.43906C9.45398 9.27526 9.44743 9.11146 9.44087 8.94766C9.44087 8.90835 9.44087 8.86249 9.44087 8.82317C9.51295 8.80352 14.7152 8.79697 14.8266 8.81662C14.8266 9.557 14.8266 10.2974 14.8266 11.0443C14.8332 11.0443 14.8397 11.0509 14.8463 11.0509C14.8659 11.0246 14.8856 10.9984 14.9052 10.9657C15.2001 10.5201 15.5342 10.1074 15.9339 9.74701C16.5695 9.17043 17.3098 8.79041 18.1485 8.5873C18.7578 8.44316 19.3737 8.39729 19.9962 8.4235C20.612 8.44971 21.2148 8.54144 21.8045 8.738C23.246 9.20974 24.3008 10.1401 24.9953 11.4898C25.3229 12.1319 25.5392 12.8133 25.6767 13.5144C25.7488 13.8813 25.7947 14.2482 25.8274 14.6217C25.834 14.6938 25.834 14.7724 25.834 14.8445C25.834 14.8838 25.8471 14.9231 25.8537 14.9559C25.8537 18.3039 25.8537 21.6455 25.8537 24.9935C24.065 24.9935 22.2697 24.9935 20.481 24.9935C20.481 24.9608 20.481 24.928 20.481 24.8952C20.481 22.032 20.481 19.1622 20.481 16.299C20.481 15.8928 20.4548 15.4866 20.3827 15.0803C20.3107 14.6807 20.1993 14.3007 20.0093 13.9403C19.7603 13.462 19.3999 13.0951 18.8954 12.8789C18.6006 12.7544 18.2926 12.6889 17.9716 12.6692C17.6374 12.6495 17.3033 12.6758 16.9822 12.7609C16.3729 12.9247 15.8815 13.272 15.4949 13.7699C15.2328 14.1106 15.0232 14.4841 14.9184 14.9034C14.8463 15.2114 14.8266 15.5259 14.8266 15.8404C14.8266 18.8543 14.8266 21.8682 14.8266 24.8887C14.8266 24.9215 14.8266 24.9542 14.8266 24.987C13.0248 25.0001 11.2296 25.0001 9.43432 25.0001Z"
    stroke="#4a4a4a" stroke-width="1.7" stroke-miterlimit="10" />
  <path
    d="M1.08051 25.0001C1.08051 24.9608 1.08051 24.9149 1.08051 24.8756C1.08051 19.5685 1.08051 14.2614 1.08051 8.95424C1.08051 8.90838 1.08051 8.86251 1.08051 8.81665C2.88231 8.81665 4.67101 8.81665 6.46626 8.81665C6.46626 8.86907 6.46626 8.91493 6.46626 8.95424C6.46626 11.6995 6.46626 14.4448 6.46626 17.1836C6.46626 19.7454 6.46626 22.3138 6.46626 24.8756C6.46626 24.9149 6.47281 24.9608 6.47281 25.0001C4.67756 25.0001 2.87576 25.0001 1.08051 25.0001Z"
    stroke="#4a4a4a" stroke-width="1.7" stroke-miterlimit="10" />
  <path
    d="M4.12064 1.00655C4.21237 1.01966 4.29755 1.03276 4.38928 1.04586C4.91999 1.12449 5.40484 1.3145 5.81761 1.6552C6.29591 2.04177 6.59075 2.53972 6.73489 3.13595C6.87904 3.75184 6.84628 4.35463 6.59075 4.93776C6.2697 5.67158 5.70623 6.14988 4.9593 6.41851C4.59239 6.54955 4.21237 6.60196 3.8258 6.60852C3.28854 6.61507 2.77093 6.52989 2.28608 6.28747C1.46708 5.88124 0.975681 5.21949 0.805329 4.32187C0.785673 4.23669 0.766017 4.15151 0.746361 4.06634C0.746361 3.88943 0.746361 3.71253 0.746361 3.53563C0.766017 3.4439 0.785673 3.35872 0.805329 3.26699C0.929817 2.61179 1.24431 2.06798 1.76847 1.64865C2.20091 1.30794 2.69231 1.11794 3.22957 1.03931C3.31475 1.02621 3.39992 1.0131 3.4851 1C3.70132 1.00655 3.91098 1.00655 4.12064 1.00655Z"
    stroke="#4a4a4a" stroke-width="1.7" stroke-miterlimit="10" />
</svg>