<svg id="Layer_1" data-name="Layer 1" xmlns="http://www.w3.org/2000/svg" viewBox="0 0 100 100"
>
  <path
    d="M60.2,78c-1,0-1.2,1.3-1.4,2.6l3.5,2.1C62.3,80.3,62,78.1,60.2,78Zm-6.3-5.4c-1.3-1.1-4.2-3.5-4.5-4.2h0l-7.7-6.5c-5-4.3-11.9-11-12.8-11.9s-.1-.1-.1-.2c-.6,2.5-1.2,4.7-1.8,4.6A113.8,113.8,0,0,0,37.6,64.7,200,200,0,0,0,54.5,77.8C54.2,75.9,54,73.5,53.9,72.6Z"
    style="fill:none;stroke:#4a4a4a;stroke-miterlimit:10" />
  <path
    d="M81.5,87.5c-.2,1.3-.9,2.5-2.3,2.5s-5.3-1-12.3-4.7c.1-1.4.1-2.8.9-3.2s2.9,1.8,6,3.2,6.2,3,7.5,2.4Z"
    style="fill:none;stroke:#4a4a4a;stroke-miterlimit:10" />
  <path
    d="M75.5,16c0,2.6-.6,4.4-1.1,4.9s-.1.1-.2.2l-.8.6-.5.5a8.7,8.7,0,0,0-4.4-.2c-3,.6-3.6,2.1-6,3s-6.5-.4-14.4,3.8S39.6,36.5,38,38s-3.9,1.8-6.7,4.6a4.1,4.1,0,0,0-.8,1.2,46.5,46.5,0,0,0-1.4,4.7l-.3,1.3c-.6,2.5-1.2,4.7-1.8,4.6a8.9,8.9,0,0,1-3.2-.5A9,9,0,0,1,19.7,50a9.6,9.6,0,0,1-1.6-6.7s-.3-2.6,2.8-7.6A40.6,40.6,0,0,1,31.5,24.3c3.6-2.5,7.9-5.4,10.8-7.1s9.3-3.7,12.9-4.9,11.5-2.8,15.1-2.1S75.5,13.4,75.5,16Z"
    style="fill:none;stroke:#4a4a4a;stroke-miterlimit:10" />
  <path
    d="M80.3,68.8v.8a9.4,9.4,0,0,1-4-.4,6.5,6.5,0,0,1-4.9-4.3,7,7,0,0,1,.1-4.4,5.2,5.2,0,0,1,.6-1.6,6.5,6.5,0,0,1,6.1-3.3l-.5-2.8c-.5-4.5-3.3-26.4-3.8-30.2h0a3,3,0,0,0,.3-1.5l-.8.6-.5.5a8.7,8.7,0,0,0-4.4-.2c-3,.6-3.6,2.1-6,3s-6.5-.4-14.4,3.8S39.6,36.5,38,38s-3.9,1.8-6.7,4.6a4.1,4.1,0,0,0-.8,1.2,46.5,46.5,0,0,0-1.4,4.7l-.3,1.3c0,.1.1.1.1.2s7.8,7.6,12.8,11.9l7.7,6.5c-.3-.7.9-2.2,1-2.4h0a5.6,5.6,0,0,1,2.7-2.1,7.3,7.3,0,0,1,6.9.7,6.4,6.4,0,0,1,2.7,4.6c.3,3-1.3,5.4-1.9,5.7a2.1,2.1,0,0,1-1.3,1c-.5.1-4.3-2.2-5.5-3.3h-.1c.1.9.3,3.3.6,5.2a.8.8,0,0,1,.1.4c.3,2,.3,5.3,2.4,5.2s1.6-1.4,1.8-2.8.4-2.6,1.4-2.6,2.1,2.3,2.1,4.7-.1,6.7,2.4,6.6,2.2-2.1,2.2-4,.1-2.8.9-3.2,2.9,1.8,6,3.2,6.2,3,7.5,2.4l.2-.2C82.6,86,81.6,77.2,80.3,68.8ZM48.9,50.9a9.8,9.8,0,0,1-2.5,2.6L44.2,55c-1.1.5-4.4.4-6-.1s-4.4-3.8-4.7-5.9a19.2,19.2,0,0,1,0-2.4h0v-.2c0-.2.1-.4.1-.6a11,11,0,0,1,3.1-5c1.1-.8,4.8-1.7,6.6-1.1l.9.4a19.3,19.3,0,0,1,4.1,3.4c0,.1.1.1.1.2S49.3,49.7,48.9,50.9Zm9.2-19.2a1.5,1.5,0,0,1,.3-1h0c.3-1.2,2-2.7,3.1-3.4a7.8,7.8,0,0,1,5.1-1.2l.6.2a5.9,5.9,0,0,1,4.4,3,7.5,7.5,0,0,1,1,3.5h0a7.1,7.1,0,0,1-.7,4.2c-1.6,3.1-3.1,4.2-7.3,4.1a6.8,6.8,0,0,1-6.5-4.8A17.6,17.6,0,0,1,58.1,31.7ZM68.9,56.3h0a7.7,7.7,0,0,1-2.6,3.3,7.5,7.5,0,0,1-6.9.8,7.9,7.9,0,0,1-4.6-4.9,12.8,12.8,0,0,1-.3-4.6h0c.1-2.4,3.6-4.6,5.1-5.1a8.2,8.2,0,0,1,4.9.1c1.5.5,4.6,3.7,4.8,5.2A14.5,14.5,0,0,1,68.9,56.3ZM80.1,80.1a6.4,6.4,0,0,1-.7,1.9,7.1,7.1,0,0,1-1.2,1.3c-.7.5-3.7.7-4.9.3a5.4,5.4,0,0,1-3.3-4,6.6,6.6,0,0,1,.6-3.4h0l.2-.3.3-.4c0-.1.1-.2.2-.3a3.8,3.8,0,0,1,1.4-.9,5.5,5.5,0,0,1,3.3-.7,4.7,4.7,0,0,1,4.2,4.6A6.6,6.6,0,0,1,80.1,80.1Z"
    style="fill:none;stroke:#4a4a4a;stroke-miterlimit:10" />
  <path
    d="M48.9,50.9a9.8,9.8,0,0,1-2.5,2.6L44.2,55c-1.1.5-4.4.4-6-.1s-4.4-3.8-4.7-5.9a19.2,19.2,0,0,1,0-2.4h0v-.2c0-.2.1-.4.1-.6a11,11,0,0,1,3.1-5c1.1-.8,4.8-1.7,6.6-1.1l.9.4a19.3,19.3,0,0,1,4.1,3.4c0,.1.1.1.1.2S49.3,49.7,48.9,50.9Z"
    style="stroke-width:0.5;fill:none;stroke:#4a4a4a;stroke-miterlimit:10" />
  <path
    d="M68.9,56.3h0a7.7,7.7,0,0,1-2.6,3.3,7.5,7.5,0,0,1-6.9.8,7.9,7.9,0,0,1-4.6-4.9,12.8,12.8,0,0,1-.3-4.6h0c.1-2.4,3.6-4.6,5.1-5.1a8.2,8.2,0,0,1,4.9.1c1.5.5,4.6,3.7,4.8,5.2A14.5,14.5,0,0,1,68.9,56.3Z"
    style="stroke-width:0.5;fill:none;stroke:#4a4a4a;stroke-miterlimit:10" />
  <path
    d="M60.8,74.9a2.1,2.1,0,0,1-1.3,1c-.5.1-4.3-2.2-5.5-3.3h-.1c-1.3-1.1-4.2-3.5-4.5-4.2h0c-.3-.7.9-2.2,1-2.4h0a5.6,5.6,0,0,1,2.7-2.1,7.3,7.3,0,0,1,6.9.7,6.4,6.4,0,0,1,2.7,4.6C63,72.2,61.4,74.6,60.8,74.9Z"
    style="stroke-width:0.5;fill:none;stroke:#4a4a4a;stroke-miterlimit:10" />
  <path
    d="M80.3,68.8h0v.8a9.4,9.4,0,0,1-4-.4,6.5,6.5,0,0,1-4.9-4.3,7,7,0,0,1,.1-4.4,5.2,5.2,0,0,1,.6-1.6,6.5,6.5,0,0,1,6.1-3.3c.4,2.9,1.2,7.3,1.9,11.9h0c0,.1.1.2.1.4S80.3,68.5,80.3,68.8Z"
    style="stroke-width:0.5;fill:none;stroke:#4a4a4a;stroke-miterlimit:10" />
  <path
    d="M71.9,37c-1.6,3.1-3.1,4.2-7.3,4.1a6.8,6.8,0,0,1-6.5-4.8,17.6,17.6,0,0,1,0-4.6,1.5,1.5,0,0,1,.3-1h0c.3-1.2,2-2.7,3.1-3.4a7.8,7.8,0,0,1,5.1-1.2l.6.2a5.9,5.9,0,0,1,4.4,3,7.5,7.5,0,0,1,1,3.5h0A7.1,7.1,0,0,1,71.9,37Z"
    style="stroke-width:0.5;fill:none;stroke:#4a4a4a;stroke-miterlimit:10" />
  <path
    d="M80.1,80.1a6.4,6.4,0,0,1-.7,1.9,7.1,7.1,0,0,1-1.2,1.3c-.7.5-3.7.7-4.9.3a5.4,5.4,0,0,1-3.3-4,6.6,6.6,0,0,1,.6-3.4h0l.2-.3.3-.4c0-.1.1-.2.2-.3a3.8,3.8,0,0,1,1.4-.9,5.5,5.5,0,0,1,3.3-.7,4.7,4.7,0,0,1,4.2,4.6A6.6,6.6,0,0,1,80.1,80.1Z"
    style="stroke-width:0.5;fill:none;stroke:#4a4a4a;stroke-miterlimit:10" />
</svg>