<svg width="21" height="22" viewBox="0 0 21 22" fill="none" xmlns="http://www.w3.org/2000/svg">
  <path
    d="M15.75 18.875H5.25001C4.55381 18.875 3.88613 18.5984 3.39385 18.1062C2.90157 17.6139 2.62501 16.9462 2.62501 16.25V5.75C2.62501 5.05381 2.90157 4.38613 3.39385 3.89384C3.88613 3.40156 4.55381 3.125 5.25001 3.125H8.75001C8.98207 3.125 9.20463 3.21719 9.36872 3.38128C9.53282 3.54538 9.62501 3.76794 9.62501 4C9.62501 4.23206 9.53282 4.45462 9.36872 4.61872C9.20463 4.78281 8.98207 4.875 8.75001 4.875H5.25001C5.01794 4.875 4.79538 4.96719 4.63129 5.13128C4.46719 5.29538 4.37501 5.51794 4.37501 5.75V16.25C4.37501 16.4821 4.46719 16.7046 4.63129 16.8687C4.79538 17.0328 5.01794 17.125 5.25001 17.125H15.75C15.9821 17.125 16.2046 17.0328 16.3687 16.8687C16.5328 16.7046 16.625 16.4821 16.625 16.25V12.75C16.625 12.5179 16.7172 12.2954 16.8813 12.1313C17.0454 11.9672 17.2679 11.875 17.5 11.875C17.7321 11.875 17.9546 11.9672 18.1187 12.1313C18.2828 12.2954 18.375 12.5179 18.375 12.75V16.25C18.375 16.9462 18.0984 17.6139 17.6062 18.1062C17.1139 18.5984 16.4462 18.875 15.75 18.875Z"
    fill="#575757" />
  <path
    d="M18.375 4.04374V8.41874C18.3741 8.59148 18.3222 8.76011 18.2256 8.90336C18.1291 9.04662 17.9923 9.15809 17.8325 9.22374C17.7287 9.27272 17.6148 9.29669 17.5 9.29374C17.3849 9.2944 17.2707 9.27233 17.1641 9.22879C17.0575 9.18524 16.9605 9.12108 16.8788 9.03999L15.2688 7.49999L11.0775 11.6912C10.9962 11.7732 10.8994 11.8383 10.7928 11.8828C10.6861 11.9272 10.5718 11.9501 10.4563 11.9501C10.3407 11.9501 10.2264 11.9272 10.1198 11.8828C10.0131 11.8383 9.91635 11.7732 9.83501 11.6912C9.75299 11.6099 9.6879 11.5131 9.64348 11.4065C9.59905 11.2999 9.57618 11.1855 9.57618 11.07C9.57618 10.9545 9.59905 10.8401 9.64348 10.7335C9.6879 10.6269 9.75299 10.5301 9.83501 10.4487L14 6.23124L12.46 4.66499C12.3342 4.54489 12.247 4.39001 12.2096 4.22013C12.1722 4.05025 12.1862 3.87308 12.25 3.71124C12.3198 3.53993 12.4421 3.39515 12.5993 3.29768C12.7565 3.20021 12.9405 3.15507 13.125 3.16874H17.5C17.5724 3.15616 17.6464 3.15616 17.7188 3.16874C17.7592 3.16094 17.8008 3.16094 17.8413 3.16874C17.9462 3.21009 18.0416 3.27261 18.1214 3.35239C18.2011 3.43217 18.2636 3.52751 18.305 3.63249C18.3128 3.67295 18.3128 3.71452 18.305 3.75499C18.3507 3.8444 18.3747 3.94332 18.375 4.04374Z"
    fill="#575757" />
</svg>